<?xml version="1.0" encoding="utf-8"?>
<!-- Generator: Adobe Illustrator 19.0.0, SVG Export Plug-In . SVG Version: 6.00 Build 0)  -->
<!DOCTYPE svg PUBLIC "-//W3C//DTD SVG 1.1//EN" "http://www.w3.org/Graphics/SVG/1.1/DTD/svg11.dtd">
<svg version="1.1" xmlns="http://www.w3.org/2000/svg" xmlns:xlink="http://www.w3.org/1999/xlink" x="0px" y="0px"
	 viewBox="0 0 360 360" enable-background="new 0 0 360 360" xml:space="preserve">
<g id="lines">
	<g id="XMLID_123_">
	</g>
</g>
<g id="dots">
	<g id="XMLID_7_">
		<line id="XMLID_11_" fill="none" stroke="#000000" stroke-miterlimit="10" x1="123" y1="180" x2="360" y2="180"/>
		<polyline id="XMLID_27_" fill="none" stroke="#000000" stroke-miterlimit="10" points="0,6.5 57,6.5 60,9.5 60,84 63,87 		"/>
		<polyline id="XMLID_28_" fill="none" stroke="#000000" stroke-miterlimit="10" points="0,87 117,87 120,90 120,119 123,122 		"/>
		<polyline id="XMLID_36_" fill="none" stroke="#000000" stroke-miterlimit="10" points="0,122 177,122 180,125 180,177 183,180 		
			"/>
		<polyline id="XMLID_37_" fill="none" stroke="#000000" stroke-miterlimit="10" points="0,317 297,317 300,314 300,183 303,180 		
			"/>
		<polyline id="XMLID_38_" fill="none" stroke="#000000" stroke-miterlimit="10" points="0,353.5 237,353.5 240,350.5 240,320 
			243,317 		"/>
		<polyline id="XMLID_39_" fill="none" stroke="#000000" stroke-miterlimit="10" points="0,258 117,258 120,255 120,183 123,180 		
			"/>
		<polyline id="XMLID_40_" fill="none" stroke="#000000" stroke-miterlimit="10" points="0,156 117,156 120,159 120,177 123,180 		
			"/>
		<circle id="XMLID_9_" cx="356" cy="180" r="4"/>
	</g>
</g>
<g id="guides">
</g>
<g id="Layer_4">
	<g id="XMLID_2_">
	</g>
	<g id="XMLID_3_">
	</g>
	<g id="XMLID_4_">
	</g>
	<g id="XMLID_5_">
	</g>
	<g id="XMLID_6_">
	</g>
	<g id="XMLID_8_">
	</g>
	<g id="XMLID_41_">
	</g>
	<g id="XMLID_42_">
	</g>
	<g id="XMLID_43_">
	</g>
	<g id="XMLID_44_">
	</g>
	<g id="XMLID_45_">
	</g>
	<g id="XMLID_46_">
	</g>
	<g id="XMLID_47_">
	</g>
	<g id="XMLID_48_">
	</g>
	<g id="XMLID_49_">
	</g>
</g>
</svg>
