<?xml version="1.0" encoding="utf-8"?>
<!-- Generator: Adobe Illustrator 19.0.0, SVG Export Plug-In . SVG Version: 6.00 Build 0)  -->
<!DOCTYPE svg PUBLIC "-//W3C//DTD SVG 1.1//EN" "http://www.w3.org/Graphics/SVG/1.1/DTD/svg11.dtd">
<svg version="1.1" xmlns="http://www.w3.org/2000/svg" xmlns:xlink="http://www.w3.org/1999/xlink" x="0px" y="0px"
	 viewBox="0 0 360 360" enable-background="new 0 0 360 360" xml:space="preserve">
<g id="lines">
	<g id="XMLID_123_">
	</g>
</g>
<g id="dots">
	<g id="XMLID_88_">
		<polyline id="XMLID_94_" fill="none" stroke="#000000" stroke-linejoin="bevel" points="359,6.5 4,180 359,353.5 		"/>
		<polygon id="XMLID_93_" points="354.3,4.3 354,5.2 358.7,6.6 356.9,11.2 357.8,11.6 360,6 		"/>
		<polygon id="XMLID_95_" points="354.3,355.7 354,354.8 358.7,353.4 356.9,348.8 357.8,348.4 360,354 		"/>
		<polyline id="XMLID_97_" fill="none" stroke="#000000" stroke-linejoin="bevel" points="359,64.3 4,180 359,295.7 		"/>
		<polygon id="XMLID_96_" points="354.6,61.5 354.1,62.4 358.6,64.5 356.2,68.8 357.1,69.3 360,64 		"/>
		<polygon id="XMLID_98_" points="354.6,298.5 354.1,297.6 358.6,295.5 356.2,291.2 357.1,290.7 360,296 		"/>
		<polyline id="XMLID_100_" fill="none" stroke="#000000" stroke-linejoin="bevel" points="358.9,122.2 4,180 358.9,237.8 		"/>
		<polygon id="XMLID_99_" points="355,118.7 354.4,119.5 358.6,122.2 355.5,126.1 356.3,126.7 360,122 		"/>
		<polygon id="XMLID_101_" points="355,241.3 354.4,240.5 358.6,237.8 355.5,233.9 356.3,233.3 360,238 		"/>
		<line id="XMLID_103_" fill="none" stroke="#000000" stroke-linejoin="bevel" x1="4" y1="180" x2="358.9" y2="180"/>
		<polygon id="XMLID_102_" points="355.6,184.1 354.9,183.4 358.5,180 354.9,176.6 355.6,175.9 360,180 		"/>
		<circle id="XMLID_106_" cx="4" cy="180" r="4"/>
	</g>
</g>
<g id="guides">
</g>
<g id="Layer_4">
	<g id="XMLID_27_">
	</g>
	<g id="XMLID_41_">
	</g>
	<g id="XMLID_89_">
	</g>
	<g id="XMLID_107_">
	</g>
	<g id="XMLID_108_">
	</g>
	<g id="XMLID_111_">
	</g>
	<g id="XMLID_112_">
	</g>
	<g id="XMLID_113_">
	</g>
	<g id="XMLID_114_">
	</g>
	<g id="XMLID_115_">
	</g>
	<g id="XMLID_116_">
	</g>
	<g id="XMLID_117_">
	</g>
	<g id="XMLID_120_">
	</g>
	<g id="XMLID_121_">
	</g>
	<g id="XMLID_122_">
	</g>
</g>
</svg>
