<?xml version="1.0" encoding="utf-8"?>
<!-- Generator: Adobe Illustrator 19.0.0, SVG Export Plug-In . SVG Version: 6.00 Build 0)  -->
<!DOCTYPE svg PUBLIC "-//W3C//DTD SVG 1.1//EN" "http://www.w3.org/Graphics/SVG/1.1/DTD/svg11.dtd">
<svg version="1.1" xmlns="http://www.w3.org/2000/svg" xmlns:xlink="http://www.w3.org/1999/xlink" x="0px" y="0px"
	 viewBox="0 0 360 360" enable-background="new 0 0 360 360" xml:space="preserve">
<g id="lines">
	<g id="XMLID_123_">
	</g>
	<g id="XMLID_2_">
		<path id="XMLID_5_" fill="none" stroke="#000000" stroke-linejoin="bevel" d="M0,180h60C181.3,180,129.7,6.5,285.3,6.5h73.6"/>
		<polygon id="XMLID_4_" points="355.6,10.6 354.9,9.9 358.5,6.5 354.9,3.1 355.6,2.4 360,6.5 		"/>
		<path id="XMLID_27_" fill="none" stroke="#000000" stroke-linejoin="bevel" d="M0,238.5h13.7c74.7,0,89.7,83.2,153.7,83.2
			c104,0,51.7-234.2,162.7-234.2h28.9"/>
		<polygon id="XMLID_6_" points="355.6,91.6 354.9,90.9 358.5,87.5 354.9,84.1 355.6,83.4 360,87.5 		"/>
		<path id="XMLID_41_" fill="none" stroke="#000000" stroke-linejoin="bevel" d="M0,64.5h12c149,0,97.7,193.5,331,193.5h15.9"/>
		<polygon id="XMLID_28_" points="355.6,262.1 354.9,261.4 358.5,258 354.9,254.6 355.6,253.9 360,258 		"/>
		<path id="XMLID_94_" fill="none" stroke="#000000" stroke-linejoin="bevel" d="M0,6.5h40c63,0,112,53.5,138.7,140.3
			C206.1,235.8,234.3,317,337,317h21.9"/>
		<polygon id="XMLID_63_" points="355.6,321.1 354.9,320.4 358.5,317 354.9,313.6 355.6,312.9 360,317 		"/>
		<path id="XMLID_103_" fill="none" stroke="#000000" stroke-linejoin="bevel" d="M0,296h10c77,0,39.7-202,149-202
			c65,0,77,62,162.7,62h37.2"/>
		<polygon id="XMLID_102_" points="355.6,160.1 354.9,159.4 358.5,156 354.9,152.6 355.6,151.9 360,156 		"/>
		<path id="XMLID_107_" fill="none" stroke="#000000" stroke-linejoin="bevel" d="M0,122h8c70.5,0,65.7,118,155.5,118
			c70.8,0,75.8-118,144.5-118h50.9"/>
		<polygon id="XMLID_106_" points="355.6,126.1 354.9,125.4 358.5,122 354.9,118.6 355.6,117.9 360,122 		"/>
		<path id="XMLID_111_" fill="none" stroke="#000000" stroke-linejoin="bevel" d="M0,353.5h19c69,0,68.7-113.5,144.5-113.5
			c78.8,0,79.5,113.5,181.5,113.5h13.9"/>
		<polygon id="XMLID_108_" points="355.6,357.6 354.9,356.9 358.5,353.5 354.9,350.1 355.6,349.4 360,353.5 		"/>
	</g>
</g>
<g id="dots">
</g>
<g id="guides">
</g>
<g id="Layer_4">
	<g id="XMLID_3_">
	</g>
	<g id="XMLID_7_">
	</g>
	<g id="XMLID_8_">
	</g>
	<g id="XMLID_9_">
	</g>
	<g id="XMLID_11_">
	</g>
	<g id="XMLID_36_">
	</g>
	<g id="XMLID_37_">
	</g>
	<g id="XMLID_38_">
	</g>
	<g id="XMLID_49_">
	</g>
	<g id="XMLID_50_">
	</g>
	<g id="XMLID_51_">
	</g>
	<g id="XMLID_52_">
	</g>
	<g id="XMLID_53_">
	</g>
	<g id="XMLID_54_">
	</g>
	<g id="XMLID_55_">
	</g>
</g>
</svg>
