<?xml version="1.0" encoding="utf-8"?>
<!-- Generator: Adobe Illustrator 19.0.0, SVG Export Plug-In . SVG Version: 6.00 Build 0)  -->
<!DOCTYPE svg PUBLIC "-//W3C//DTD SVG 1.1//EN" "http://www.w3.org/Graphics/SVG/1.1/DTD/svg11.dtd">
<svg version="1.1" xmlns="http://www.w3.org/2000/svg" xmlns:xlink="http://www.w3.org/1999/xlink" x="0px" y="0px"
	 viewBox="0 0 360 360" enable-background="new 0 0 360 360" xml:space="preserve">
<g id="lines">
	<g id="XMLID_123_">
	</g>
</g>
<g id="dots">
	<g id="XMLID_75_">
		<polyline id="XMLID_79_" points="123,180.5 360,180.5 360,179.5 123,179.5 		"/>
		<polygon id="XMLID_80_" points="0,7 55.8,7 59.5,10.7 59.5,83.2 63.6,87.4 64.4,86.6 60.5,82.8 60.5,10.3 56.2,6 0,6 0,7 		"/>
		<polygon id="XMLID_81_" points="0,87.5 115.8,87.5 119.5,91.2 119.5,118.2 123.6,122.4 124.4,121.6 120.5,117.8 120.5,90.8 
			116.2,86.5 0,86.5 0,87.5 		"/>
		<polygon id="XMLID_82_" points="0,122.5 175.8,122.5 179.5,126.2 179.5,176.2 183.6,180.4 184.4,179.6 180.5,175.8 180.5,125.8 
			176.2,121.5 0,121.5 0,122.5 		"/>
		<polygon id="XMLID_83_" points="0,317.5 296.2,317.5 300.5,313.2 300.5,184.2 304.4,180.4 303.6,179.6 299.5,183.8 299.5,312.8 
			295.8,316.5 0,316.5 0,317.5 		"/>
		<polygon id="XMLID_84_" points="0,354 236.2,354 240.5,349.7 240.5,321.2 244.4,317.4 243.6,316.6 239.5,320.8 239.5,349.3 
			235.8,353 0,353 0,354 		"/>
		<polygon id="XMLID_85_" points="0,258.5 116.2,258.5 120.5,254.2 120.5,184.2 124.4,180.4 123.6,179.6 119.5,183.8 119.5,253.8 
			115.8,257.5 0,257.5 0,258.5 		"/>
		<polygon id="XMLID_86_" points="0,156.5 115.8,156.5 119.5,160.2 119.5,176.2 123.6,180.4 124.4,179.6 120.5,175.8 120.5,159.8 
			116.2,155.5 0,155.5 0,156.5 		"/>
		<circle id="XMLID_87_" cx="356" cy="180" r="4"/>
	</g>
</g>
<g id="guides">
</g>
<g id="Layer_4">
	<g id="XMLID_1_">
	</g>
	<g id="XMLID_4_">
	</g>
	<g id="XMLID_5_">
	</g>
	<g id="XMLID_6_">
	</g>
	<g id="XMLID_10_">
	</g>
	<g id="XMLID_12_">
	</g>
	<g id="XMLID_63_">
	</g>
	<g id="XMLID_78_">
	</g>
	<g id="XMLID_88_">
	</g>
	<g id="XMLID_89_">
	</g>
	<g id="XMLID_90_">
	</g>
	<g id="XMLID_91_">
	</g>
	<g id="XMLID_92_">
	</g>
	<g id="XMLID_93_">
	</g>
	<g id="XMLID_94_">
	</g>
</g>
</svg>
